.
 
http://www.scenetime.com    -  Hottest private tracker on the net. !!!

New release on http://www.scenetime.com

        Seed back for speed


...................................NFO:.................................................                                                                                                     
       
     
     
       
       
     
     
                                         
                                         
                EXVID                    
                                         
         
                                         
         Filled the Archives             
                                         
         
                                         
                With:                    
                                         
         
                                         
                                    
     E240                           
                                    
     SP               (C) 2009      
                                         
     
     
     
                                                                                  
                                                                                   
               The.Suburbans.1999.iNTERNAL.DVDRip.XviD-EXViDiNT                     
                                                                                   
                                                                                  
     
                                                                                               
EXViD aims to iNTERNAL those releases which have been lost in the archives.
EXViD aims to PRE non-internal releases which have poor sources and are likely skipped by others. 
http://www.imdb.com/title/tt0157075/
Subtitles: EN
Date: 2012.01

Director: Donal Lardner Ward

Genres: Comedy | Drama

Plot:
An 80's one-hit wonder band named The Suburbans reform for a special performance at one of the
ex-member's wedding. At the wedding, a young record company talent scout happens to be in the
audience and decides to give the now 40-ish performers a comeback push. The film attempts to take
a satirical look at the music business of the 90's and compare it to the simpler 80's scene.

Cast:
Donal Lardner Ward	...	Danny
Tony Guma	...	Rory
Craig Bierko	...	Mitch
Will Ferrell	...	Gil
Dick Clark	...	Himself
Amy Brenneman	...	Grace
Bridgette Wilson-Sampras	...	Lara (as Bridgette Wilson)
Brian Chlebowski	...	Kenny
Perrey Reeves	...	Amanda
Robert Loggia	...	Jules
Jennifer Love Hewitt	...	Cate
Jerry Stiller	...	Speedo Silverberg
Ben Stiller	...	Jay Rose
Lisa Gerstein	...	Leslie Gonzalez
Antonio Fargas	...	Magee

Stats:
Format                                   : AVI
Format/Info                              : Audio Video Interleave
File size                                : 703 MiB
Duration                                 : 1h 27mn
Overall bit rate mode                    : Variable
Overall bit rate                         : 1 127 Kbps

Video
ID                                       : 0
Format                                   : MPEG-4 Visual
Format profile                           : Advanced Simple@L5
Format settings, BVOP                    : 2
Format settings, QPel                    : No
Format settings, GMC                     : No warppoints
Format settings, Matrix                  : Default (H.263)
Codec ID                                 : XVID
Codec ID/Hint                            : XviD
Duration                                 : 1h 27mn
Bit rate                                 : 993 Kbps
Width                                    : 640 pixels
Height                                   : 352 pixels
Display aspect ratio                     : 16:9
Frame rate                               : 23.976 fps
Color space                              : YUV
Chroma subsampling                       : 4:2:0
Bit depth                                : 8 bits
Scan type                                : Progressive
Compression mode                         : Lossy
Bits/(Pixel*Frame)                       : 0.184
Stream size                              : 619 MiB (88%)
Writing library                          : XviD 64

Audio
ID                                       : 1
Format                                   : MPEG Audio
Format version                           : Version 1
Format profile                           : Layer 3
Mode                                     : Joint stereo
Mode extension                           : MS Stereo
Codec ID                                 : 55
Codec ID/Hint                            : MP3
Duration                                 : 1h 27mn
Bit rate mode                            : Variable
Bit rate                                 : 121 Kbps
Channel(s)                               : 2 channels
Sampling rate                            : 48.0 KHz
Compression mode                         : Lossy
Stream size                              : 75.6 MiB (11%)
Alignment                                : Aligned on interleaves
Interleave, duration                     : 24 ms (0.58 video frame)
Interleave, preload duration             : 286 ms



Release notes:
Enjoy!

Looking for:
75TB+ Archives
DUTCH/FLEMiSH Archives
                                                                                                    
Greets: CRBS EPiSODE FiCO FLS iLS KLASSiGER LiPSYNC MADE NODLABS RUNNER SPRiNTER      
   

                                                                    ASCII DONE BY XX^NFO 2oo9     
 

RLS-Crc: 4F56455252494445:33EF